<?xml version="1.0" encoding="iso-8859-1"?>
<!-- Generator: Adobe Illustrator 19.0.0, SVG Export Plug-In . SVG Version: 6.00 Build 0)  -->
<svg version="1.1" id="Layer_1" xmlns="http://www.w3.org/2000/svg" xmlns:xlink="http://www.w3.org/1999/xlink" x="0px" y="0px"
	 viewBox="0 0 480.001 480.001" style="enable-background:new 0 0 480.001 480.001;" xml:space="preserve">
<g>
	<g>
		<g>
			<path d="M169.023,102.858c-38.475,0-69.776,31.285-69.776,69.739c0,38.458,31.301,69.746,69.776,69.746
				c38.442,0,69.716-31.288,69.716-69.746C238.74,134.143,207.465,102.858,169.023,102.858z M169.023,222.343
				c-27.446,0-49.776-22.316-49.776-49.746c0-27.426,22.329-49.739,49.776-49.739c27.414,0,49.716,22.313,49.716,49.739
				C218.74,200.027,196.437,222.343,169.023,222.343z"/>
			<path d="M142.5,161.74c-2.63,0-5.2,1.07-7.07,2.93c-1.86,1.86-2.92,4.44-2.92,7.07s1.06,5.21,2.92,7.07
				c1.87,1.87,4.44,2.93,7.07,2.93c2.64,0,5.21-1.06,7.08-2.93c1.86-1.86,2.92-4.441,2.92-7.07c0-2.63-1.06-5.21-2.92-7.07
				C147.71,162.81,145.14,161.74,142.5,161.74z"/>
			<path d="M204.626,311.597l-36.387-29.506c-4.288-3.478-10.587-2.821-14.065,1.469c-3.479,4.289-2.821,10.587,1.469,14.065
				l36.387,29.506c1.852,1.502,4.08,2.233,6.292,2.233c2.911,0,5.797-1.265,7.773-3.702
				C209.573,321.373,208.916,315.075,204.626,311.597z"/>
			<path d="M479.347,199.949c-1.476-3.881-5.195-6.446-9.347-6.446h-45.063l28.233-32.039c2.599-2.949,3.229-7.146,1.611-10.728
				c-1.618-3.581-5.184-5.884-9.114-5.884H332.718C318.465,77.113,263.87,29.501,194.704,29.501
				c-36.131,0-68.609,12.637-93.924,36.543c-23.286,21.991-38.863,51.752-45.176,86.225c-4.272,1.913-13.771,4.561-20.385,6.405
				C13.256,164.797,0,168.493,0,180.084c0,9.737,10.158,14.097,34.701,24.629c8.037,3.449,20.787,8.921,25.871,12.113
				c0.444,47.858,9.53,89.282,27.025,123.18c15.411,29.861,37.463,54.198,65.545,72.334c48.833,31.54,105.179,38.16,143.847,38.16
				c18.447,0,30.238-1.578,30.731-1.646c4.955-0.675,8.649-4.907,8.649-9.908v-68.178l116.218-111.396
				c2.948-2.825,3.881-7.159,2.359-10.948c-1.522-3.789-5.196-6.271-9.279-6.271h-4.096l35.072-31.176
				C479.747,208.219,480.823,203.83,479.347,199.949z M316.37,429.844c-4.813,0.339-11.438,0.656-19.38,0.656
				c-65.076,0-216.435-21.181-216.435-217.376c0-9.987-9.756-14.683-37.966-26.79c-3.714-1.594-8.232-3.533-12.408-5.415
				c3.646-1.094,7.426-2.148,10.41-2.98c20.958-5.843,32.503-9.062,34.158-19.019c10.905-66.47,57.99-109.419,119.955-109.419
				c69.361,0,121.666,56.313,121.666,130.987V429.844z M423.527,164.853l-25.247,28.65h-61.91v-13.015
				c0-5.295-0.233-10.51-0.685-15.635H423.527z M408.626,244.679c-3.103,2.758-4.179,7.148-2.704,11.028
				c1.475,3.881,5.195,6.446,9.347,6.446h5.513l-84.414,80.911V213.503h107.329L408.626,244.679z"/>
		</g>
	</g>
</g>
<g>
</g>
<g>
</g>
<g>
</g>
<g>
</g>
<g>
</g>
<g>
</g>
<g>
</g>
<g>
</g>
<g>
</g>
<g>
</g>
<g>
</g>
<g>
</g>
<g>
</g>
<g>
</g>
<g>
</g>
</svg>
